<mxfile host="app.diagrams.net" modified="2020-12-10T08:34:58.939Z" agent="5.0 (Windows NT 10.0; Win64; x64) AppleWebKit/537.36 (KHTML, like Gecko) Chrome/87.0.4280.66 Safari/537.36" etag="1KOWjVJXJRXC-c4Sox9o" version="14.0.0" type="github">
  <diagram id="9Q1Mpkf2NLSXijgCKsfE" name="Page-1">
    <mxGraphModel dx="1302" dy="581" grid="1" gridSize="10" guides="1" tooltips="1" connect="1" arrows="1" fold="1" page="1" pageScale="1" pageWidth="827" pageHeight="1169" math="0" shadow="0">
      <root>
        <mxCell id="0" />
        <mxCell id="1" parent="0" />
        <mxCell id="te5PUj8uQk6K5HPgWg1_-3" value="" style="edgeStyle=orthogonalEdgeStyle;rounded=0;orthogonalLoop=1;jettySize=auto;html=1;" edge="1" parent="1" source="te5PUj8uQk6K5HPgWg1_-1" target="te5PUj8uQk6K5HPgWg1_-2">
          <mxGeometry relative="1" as="geometry" />
        </mxCell>
        <mxCell id="te5PUj8uQk6K5HPgWg1_-1" value="开始" style="rounded=0;whiteSpace=wrap;html=1;" vertex="1" parent="1">
          <mxGeometry x="70" y="80" width="70" height="40" as="geometry" />
        </mxCell>
        <mxCell id="te5PUj8uQk6K5HPgWg1_-7" value="" style="edgeStyle=orthogonalEdgeStyle;rounded=0;orthogonalLoop=1;jettySize=auto;html=1;" edge="1" parent="1" source="te5PUj8uQk6K5HPgWg1_-2" target="te5PUj8uQk6K5HPgWg1_-6">
          <mxGeometry relative="1" as="geometry">
            <Array as="points">
              <mxPoint x="360" y="100" />
              <mxPoint x="360" y="100" />
            </Array>
          </mxGeometry>
        </mxCell>
        <mxCell id="te5PUj8uQk6K5HPgWg1_-16" value="" style="edgeStyle=orthogonalEdgeStyle;rounded=0;orthogonalLoop=1;jettySize=auto;html=1;" edge="1" parent="1" source="te5PUj8uQk6K5HPgWg1_-2">
          <mxGeometry relative="1" as="geometry">
            <mxPoint x="550" y="100" as="targetPoint" />
            <Array as="points">
              <mxPoint x="260" y="20" />
              <mxPoint x="550" y="20" />
            </Array>
          </mxGeometry>
        </mxCell>
        <mxCell id="te5PUj8uQk6K5HPgWg1_-2" value="shared_pred，files，database是否为缓存路径&lt;br&gt;" style="rhombus;whiteSpace=wrap;html=1;rounded=0;" vertex="1" parent="1">
          <mxGeometry x="190" y="60" width="140" height="80" as="geometry" />
        </mxCell>
        <mxCell id="te5PUj8uQk6K5HPgWg1_-10" value="" style="edgeStyle=orthogonalEdgeStyle;rounded=0;orthogonalLoop=1;jettySize=auto;html=1;" edge="1" parent="1" source="te5PUj8uQk6K5HPgWg1_-6" target="te5PUj8uQk6K5HPgWg1_-9">
          <mxGeometry relative="1" as="geometry" />
        </mxCell>
        <mxCell id="te5PUj8uQk6K5HPgWg1_-14" value="" style="edgeStyle=orthogonalEdgeStyle;rounded=0;orthogonalLoop=1;jettySize=auto;html=1;" edge="1" parent="1" source="te5PUj8uQk6K5HPgWg1_-6" target="te5PUj8uQk6K5HPgWg1_-13">
          <mxGeometry relative="1" as="geometry" />
        </mxCell>
        <mxCell id="te5PUj8uQk6K5HPgWg1_-6" value="/data/data/pkgname是否为缓存文件夹" style="rhombus;whiteSpace=wrap;html=1;rounded=0;" vertex="1" parent="1">
          <mxGeometry x="380" y="60" width="140" height="80" as="geometry" />
        </mxCell>
        <mxCell id="te5PUj8uQk6K5HPgWg1_-8" value="n&lt;br&gt;" style="text;html=1;align=center;verticalAlign=middle;resizable=0;points=[];autosize=1;" vertex="1" parent="1">
          <mxGeometry x="340" y="80" width="20" height="20" as="geometry" />
        </mxCell>
        <mxCell id="te5PUj8uQk6K5HPgWg1_-9" value="基本不可能发生,发生的话需要重点排查&lt;br&gt;" style="whiteSpace=wrap;html=1;rounded=0;" vertex="1" parent="1">
          <mxGeometry x="390" y="170" width="120" height="50" as="geometry" />
        </mxCell>
        <mxCell id="te5PUj8uQk6K5HPgWg1_-11" value="n" style="text;html=1;align=center;verticalAlign=middle;resizable=0;points=[];autosize=1;" vertex="1" parent="1">
          <mxGeometry x="450" y="140" width="20" height="20" as="geometry" />
        </mxCell>
        <mxCell id="te5PUj8uQk6K5HPgWg1_-20" value="" style="edgeStyle=orthogonalEdgeStyle;rounded=0;orthogonalLoop=1;jettySize=auto;html=1;" edge="1" parent="1" source="te5PUj8uQk6K5HPgWg1_-13" target="te5PUj8uQk6K5HPgWg1_-19">
          <mxGeometry relative="1" as="geometry" />
        </mxCell>
        <mxCell id="te5PUj8uQk6K5HPgWg1_-13" value="缩减文件夹数量（缩减方法与前述一致， 包名下的文件整体作为一个文件夹处理）" style="whiteSpace=wrap;html=1;rounded=0;" vertex="1" parent="1">
          <mxGeometry x="590" y="70" width="120" height="60" as="geometry" />
        </mxCell>
        <mxCell id="te5PUj8uQk6K5HPgWg1_-17" value="y" style="text;html=1;align=center;verticalAlign=middle;resizable=0;points=[];autosize=1;" vertex="1" parent="1">
          <mxGeometry x="390" y="20" width="20" height="20" as="geometry" />
        </mxCell>
        <mxCell id="te5PUj8uQk6K5HPgWg1_-18" value="y" style="text;html=1;align=center;verticalAlign=middle;resizable=0;points=[];autosize=1;" vertex="1" parent="1">
          <mxGeometry x="540" y="100" width="20" height="20" as="geometry" />
        </mxCell>
        <mxCell id="te5PUj8uQk6K5HPgWg1_-24" value="" style="edgeStyle=orthogonalEdgeStyle;rounded=0;orthogonalLoop=1;jettySize=auto;html=1;" edge="1" parent="1" source="te5PUj8uQk6K5HPgWg1_-19" target="te5PUj8uQk6K5HPgWg1_-23">
          <mxGeometry relative="1" as="geometry" />
        </mxCell>
        <mxCell id="te5PUj8uQk6K5HPgWg1_-19" value="列出缩减后的所有文件夹下面的所有文件" style="whiteSpace=wrap;html=1;rounded=0;" vertex="1" parent="1">
          <mxGeometry x="590" y="160" width="120" height="60" as="geometry" />
        </mxCell>
        <mxCell id="te5PUj8uQk6K5HPgWg1_-23" value="根据游戏是否能够切换账号采用不同算法筛查具体文件" style="whiteSpace=wrap;html=1;rounded=0;" vertex="1" parent="1">
          <mxGeometry x="590" y="270" width="120" height="60" as="geometry" />
        </mxCell>
        <mxCell id="te5PUj8uQk6K5HPgWg1_-25" value="对定位出的文件进一步缩减获取存档文件" style="whiteSpace=wrap;html=1;rounded=0;" vertex="1" parent="1">
          <mxGeometry x="590" y="370" width="120" height="60" as="geometry" />
        </mxCell>
        <mxCell id="te5PUj8uQk6K5HPgWg1_-26" value="" style="edgeStyle=orthogonalEdgeStyle;rounded=0;orthogonalLoop=1;jettySize=auto;html=1;entryX=0.5;entryY=0;entryDx=0;entryDy=0;exitX=0.5;exitY=1;exitDx=0;exitDy=0;" edge="1" parent="1" source="te5PUj8uQk6K5HPgWg1_-23" target="te5PUj8uQk6K5HPgWg1_-25">
          <mxGeometry relative="1" as="geometry">
            <mxPoint x="660" y="230" as="sourcePoint" />
            <mxPoint x="660" y="280" as="targetPoint" />
          </mxGeometry>
        </mxCell>
      </root>
    </mxGraphModel>
  </diagram>
</mxfile>
